<svg width="80" height="70" viewBox="0 0 80 70" fill="none" xmlns="http://www.w3.org/2000/svg">
<path d="M79.8269 39.7949L0 38.5834L0.0399133 44.7465C0.0798268 46.1388 0.873399 47.5357 2.57559 48.5782L18.7922 58.5049L35.0111 68.4292C38.5939 70.6245 44.743 70.4202 47.983 68.4292C51.2301 66.4453 49.6077 65.4545 52.8501 63.4659C56.0925 61.4843 57.7125 62.4751 60.9596 60.4935C64.2066 58.5025 77.1808 50.5691 77.1808 50.5691C78.9676 49.475 79.8597 48.0405 79.8644 46.6036L79.8269 39.7949V39.7949Z" fill="#F4900C"/>
<path d="M77.1808 35.5805C77.1808 35.5805 5.82032 31.6126 2.57559 33.5966C-0.669135 35.5805 -1.00723 39.3417 2.57559 41.537L18.7922 51.4637L35.0111 61.3904C38.5939 63.5856 44.743 63.3814 47.983 61.3904C51.2301 59.4065 49.6077 58.4157 52.8501 56.427C56.0925 54.4455 57.7125 55.4362 60.9596 53.4547C64.2066 51.4637 77.1785 43.528 77.1785 43.528C80.7613 41.3327 80.7637 37.7734 77.1808 35.5805V35.5805Z" fill="#FFAC33"/>
<path d="M21.6519 49.4821L38.2535 59.4088C38.2535 59.4088 41.5734 61.3904 44.8932 59.4088C47.7036 57.7254 49.873 54.4454 49.873 54.4454L21.6519 49.4821V49.4821Z" fill="#FFD983"/>
<path d="M76.8662 35.2142C72.3091 29.1356 14.1928 24.8555 5.07605 33.4134C3.23534 35.1438 -0.241823 38.6256 3.46073 43.8355C5.07605 46.5637 8.42878 48.341 8.87487 47.4982C9.91497 45.5213 11.9905 43.7933 15.1037 43.96C14.9276 44.3779 16.6087 51.4895 16.4185 51.6492C14.2468 53.4946 18.7593 59.9089 24.0467 56.4928C25.3638 59.0942 33.3348 65.5156 38.8358 56.7323C39.9299 58.7138 51.4202 61.7285 54.611 52.586C54.5851 52.7433 54.5922 52.8771 54.5499 53.0461C54.341 53.8679 56.2451 54.5793 58.1844 53.8984C61.4456 52.7573 66.1553 49.9235 66.9888 46.8126C69.3155 46.4064 71.06 47.0521 72.403 48.827C73.0674 49.7051 75.3472 49.9164 76.3215 48.7683C78.0402 46.7515 80.8599 40.5438 76.8662 35.2142Z" fill="#77B255"/>
<path d="M70.4355 50.4189C70.4355 51.6609 68.3318 52.6704 65.7398 52.6704H14.0871C11.4951 52.6704 9.3914 51.6609 9.3914 50.4189V35.0381H70.4355V50.4189V50.4189Z" fill="#FFCC4D"/>
<path d="M75.8613 38.5529C75.8613 45.0517 65.0941 50.3226 51.8147 50.3226C38.5305 50.3226 27.7657 45.0517 27.7657 38.5529C27.7657 32.0517 38.5305 26.7831 51.8147 26.7831C65.0941 26.7831 75.8613 32.054 75.8613 38.5529V38.5529Z" fill="#BE1931"/>
<path d="M79.8269 25.7078L0 24.4963V30.6594H0.0399133C0.0798268 32.0517 0.873399 33.4486 2.57559 34.4911L18.7922 44.4178L35.0111 54.3421C38.5939 56.5374 44.743 56.3331 47.983 54.3421C51.2301 52.3582 49.6077 51.3674 52.8501 49.3788C56.0925 47.3972 57.7125 48.388 60.9596 46.4064C64.2066 44.4154 77.1808 36.4821 77.1808 36.4821C78.9676 35.388 79.8597 33.9534 79.8644 32.5165V32.5048L79.8269 25.7078Z" fill="#F4900C"/>
<path d="M77.1802 21.4934L44.7446 1.64467C41.1618 -0.548223 35.3532 -0.548223 31.7681 1.64467L15.5491 11.5714C12.3068 13.5553 13.9268 14.5484 10.6844 16.5324C7.44202 18.5163 5.81965 17.5232 2.57492 19.5094C-0.669803 21.4934 -1.00789 25.2546 2.57492 27.4499L35.0105 47.3009C38.5933 49.4962 44.7423 49.2919 47.9823 47.3009C51.2294 45.317 49.607 44.3262 52.8494 42.3376C56.0918 40.356 57.7118 41.3468 60.9589 39.3652C64.206 37.3742 77.1778 29.4385 77.1778 29.4385C80.7606 27.2456 80.763 23.6863 77.1802 21.4934V21.4934Z" fill="#FFAC33"/>
<path d="M74.779 23.482L41.5734 3.63096C41.5734 3.63096 38.0352 1.77381 34.9313 3.63096L18.5856 13.4027C15.7752 15.0814 16.1602 16.8376 13.3499 18.5163C10.5418 20.1974 7.85825 19.8147 5.04788 21.4934C1.72802 23.482 5.04788 25.4683 5.04788 25.4683L38.2512 45.3194C38.2512 45.3194 41.571 47.3009 44.8909 45.3194C47.7013 43.6359 47.065 42.0394 49.8707 40.356C52.681 38.6726 55.6158 38.9027 58.4262 37.224C61.2366 35.5476 74.7743 27.4499 74.7743 27.4499C74.7743 27.4499 77.8805 25.3345 74.779 23.482Z" fill="#FFD983"/>
</svg>
